<?xml version="1.0" encoding="UTF-8" ?>
<!DOCTYPE svg PUBLIC "-//W3C//DTD SVG 1.1//EN" "http://www.w3.org/Graphics/SVG/1.1/DTD/svg11.dtd">
<svg width="1313pt" height="422pt" viewBox="0 0 1313 422" version="1.1" xmlns="http://www.w3.org/2000/svg">
<g id="#000000ff">
</g>
<g id="#ffffffff">
<path fill="#ffffff" opacity="1.00" d=" M 116.90 2.84 C 127.93 2.36 139.01 1.98 150.02 2.77 C 154.78 4.22 159.89 3.86 164.57 5.57 C 179.26 9.18 193.66 15.08 205.81 24.22 C 211.80 29.44 218.37 34.37 222.94 40.93 C 221.36 43.57 218.73 45.41 216.80 47.81 C 212.41 52.44 207.78 56.84 203.19 61.27 C 202.40 62.19 201.24 62.50 200.14 62.84 C 193.73 56.46 187.17 50.04 179.09 45.79 C 170.49 41.22 161.27 37.33 151.52 36.21 C 142.51 34.13 133.18 35.02 124.02 35.07 C 120.89 34.96 118.08 36.68 114.97 36.82 C 97.08 40.19 80.75 49.99 68.10 62.93 C 55.00 76.34 47.21 94.77 46.15 113.41 C 46.16 118.79 46.09 124.18 46.11 129.56 C 45.90 134.48 47.58 139.19 48.17 144.03 C 50.14 151.01 52.16 158.12 56.09 164.29 C 61.31 173.37 67.71 181.87 75.95 188.44 C 83.01 194.72 91.41 199.16 99.99 202.99 C 117.87 209.10 137.48 211.41 156.02 206.97 C 167.83 204.06 179.54 199.38 188.90 191.41 C 193.28 188.06 197.05 184.02 200.94 180.13 C 208.00 186.35 214.26 193.41 221.03 199.93 C 221.91 201.06 223.66 202.04 223.35 203.69 C 215.65 211.36 207.83 219.13 198.37 224.62 C 188.08 230.94 176.61 235.19 164.91 238.05 C 159.85 238.50 155.05 240.44 149.94 240.53 C 137.29 242.21 124.57 240.88 111.91 240.16 C 97.00 237.42 82.48 232.37 69.21 224.98 C 48.75 213.63 32.11 195.47 22.55 174.13 C 18.45 166.27 16.47 157.56 13.79 149.18 C 13.93 143.93 11.10 139.19 11.56 133.94 C 11.31 124.60 11.25 115.24 11.77 105.91 C 12.69 102.30 13.72 98.69 13.82 94.93 C 17.41 79.59 23.64 64.78 33.00 52.04 C 33.26 51.53 33.79 50.49 34.05 49.98 C 39.22 44.04 43.90 37.48 50.21 32.68 C 65.79 18.45 85.77 9.73 106.17 5.04 C 109.72 4.17 113.58 4.61 116.90 2.84 Z" />
<path fill="#ffffff" opacity="1.00" d=" M 432.89 4.83 C 436.63 4.34 440.42 4.03 444.01 2.76 C 454.33 2.23 464.69 2.28 475.02 2.70 C 478.61 3.65 482.25 4.43 485.97 4.72 C 502.62 8.14 518.79 14.55 532.82 24.23 C 540.42 29.86 547.43 36.22 553.87 43.14 C 554.11 43.39 554.58 43.89 554.81 44.14 C 562.64 53.83 568.87 64.69 573.87 76.08 C 579.31 90.40 582.73 105.67 582.42 121.04 C 582.31 128.41 582.59 135.88 580.77 143.09 C 579.54 152.32 576.11 161.01 573.31 169.82 L 573.31 169.83 C 570.78 174.23 568.84 178.94 566.34 183.35 C 561.79 190.66 556.78 197.67 551.02 204.06 C 550.78 204.32 550.32 204.84 550.09 205.10 C 540.97 214.31 530.38 221.95 518.86 227.87 C 510.06 232.57 500.48 235.42 490.99 238.29 C 486.96 238.79 483.12 240.36 479.03 240.38 C 472.35 240.64 465.69 241.27 459.01 241.38 C 451.31 240.90 443.60 240.62 435.90 240.04 C 430.19 238.48 424.29 237.57 418.75 235.31 C 400.25 229.99 383.96 218.96 370.08 205.86 C 366.30 201.66 362.70 197.32 359.00 193.06 C 357.53 190.69 356.02 188.36 354.43 186.08 C 350.83 180.90 348.56 174.96 345.54 169.45 C 340.73 156.19 336.75 142.44 336.79 128.25 C 336.28 122.17 336.84 116.09 336.76 110.00 C 336.53 105.20 338.68 100.75 339.03 96.01 C 341.40 83.23 346.33 71.02 353.02 59.90 C 357.12 54.11 360.63 47.80 365.90 42.95 C 383.16 23.21 407.42 10.32 432.89 4.83 M 442.89 36.28 C 422.50 39.64 402.78 49.97 390.11 66.56 C 389.83 66.58 389.27 66.62 388.98 66.63 C 381.31 78.23 374.34 90.85 372.58 104.86 C 370.43 113.06 370.86 121.61 371.10 130.00 C 372.64 143.28 376.05 156.61 383.31 168.01 C 387.30 174.05 391.24 180.42 397.09 184.84 C 408.59 195.88 423.22 203.93 438.97 206.76 C 457.19 211.36 476.53 209.11 494.13 203.07 C 501.90 199.53 509.66 195.69 516.19 190.10 C 530.48 178.81 540.74 162.46 544.85 144.75 C 546.58 141.06 545.86 136.84 547.17 133.06 C 547.96 126.42 548.06 119.68 547.41 113.03 C 546.66 110.02 546.37 106.94 546.07 103.86 C 545.12 98.36 543.23 93.09 541.55 87.79 C 537.54 79.48 533.55 71.01 527.11 64.24 C 522.95 59.34 518.37 54.68 513.08 51.03 C 500.69 42.21 485.91 37.43 471.05 35.09 C 463.33 34.81 455.60 34.80 447.88 35.12 C 446.15 35.17 444.54 35.86 442.89 36.28 Z" />
<path fill="#ffffff" opacity="1.00" d=" M 804.87 4.38 C 807.28 4.18 809.73 3.77 811.95 2.73 C 822.65 2.36 833.38 2.14 844.07 2.79 C 848.08 4.23 852.37 4.24 856.49 5.18 C 879.47 10.14 901.42 21.21 917.88 38.15 C 922.32 43.28 927.37 47.95 930.64 53.97 C 936.44 63.50 941.97 73.35 945.14 84.09 C 947.56 90.31 948.14 97.02 949.88 103.41 C 951.17 107.11 950.76 111.15 951.18 115.01 C 951.14 124.91 951.81 135.04 949.15 144.67 C 945.01 165.17 936.16 184.87 922.34 200.66 C 919.50 203.73 916.76 206.88 913.91 209.93 C 900.22 222.25 883.61 231.19 865.92 236.28 C 856.54 239.70 846.53 240.72 836.60 240.96 C 828.74 241.89 820.88 240.87 813.02 240.60 C 804.18 240.28 795.47 238.33 787.18 235.29 C 774.43 231.54 762.45 225.24 751.98 217.10 C 740.96 209.17 731.53 199.11 724.07 187.77 C 719.76 182.14 717.26 175.45 713.86 169.29 C 713.41 167.80 712.97 166.31 712.45 164.85 C 710.67 159.66 708.93 154.41 707.62 149.06 C 707.41 145.67 706.63 142.38 705.62 139.14 C 705.02 128.10 705.10 117.01 705.51 105.95 C 705.55 104.18 706.25 102.55 706.73 100.87 C 709.82 78.38 720.72 57.22 736.26 40.75 C 737.24 39.93 738.10 38.88 739.46 38.66 C 740.62 37.42 741.68 36.09 742.76 34.77 C 748.30 32.13 751.33 25.63 757.52 24.30 L 757.11 23.33 C 758.43 22.75 759.75 22.13 761.03 21.42 C 761.87 20.15 763.38 19.64 764.60 18.80 C 764.65 18.69 764.77 18.46 764.83 18.34 L 764.95 18.07 C 777.78 12.28 790.71 5.99 804.87 4.38 M 785.53 44.65 C 775.84 49.65 766.68 56.18 760.02 64.92 C 757.75 66.52 756.05 68.74 754.66 71.12 C 748.48 80.46 743.57 90.83 741.54 101.91 C 741.30 105.77 739.33 109.40 739.98 113.31 C 739.61 119.66 739.42 126.12 740.15 132.44 C 741.14 143.94 744.59 155.27 750.13 165.42 C 755.49 174.20 761.63 182.86 770.12 188.85 C 785.51 202.22 805.93 208.54 826.09 209.18 C 838.33 209.60 850.44 206.96 862.05 203.33 C 865.55 201.70 869.03 200.01 872.51 198.33 C 882.36 193.04 890.70 185.41 898.04 177.06 C 903.41 168.81 909.19 160.47 911.65 150.80 C 913.48 146.00 914.54 140.94 915.05 135.83 C 917.50 125.23 916.23 114.32 914.55 103.73 C 913.67 96.25 910.86 88.98 907.82 82.09 C 906.35 77.04 902.15 73.40 900.47 68.42 C 899.65 67.25 898.15 66.84 897.38 65.64 C 894.86 61.89 891.35 58.98 888.24 55.76 C 886.57 53.90 884.40 52.63 882.20 51.52 C 873.69 45.47 864.15 40.88 854.04 38.28 C 850.03 36.67 845.62 36.74 841.57 35.28 C 833.04 34.68 824.47 34.82 815.93 35.15 C 805.55 37.31 795.00 39.63 785.53 44.65 Z" />
<path fill="#ffffff" opacity="1.00" d=" M 1093.49 4.61 C 1104.37 3.87 1115.31 4.43 1126.21 4.30 C 1126.82 4.72 1127.44 5.14 1128.07 5.56 C 1128.39 47.42 1127.96 89.30 1128.28 131.15 C 1135.19 123.78 1142.39 116.69 1149.39 109.40 C 1151.34 107.28 1153.68 105.46 1155.06 102.88 L 1155.59 102.83 C 1179.74 78.55 1203.34 53.70 1227.31 29.23 C 1229.34 26.90 1231.81 24.93 1233.53 22.35 C 1239.38 17.16 1245.34 10.92 1250.80 4.91 C 1254.42 3.80 1258.25 4.40 1261.98 4.27 C 1271.67 4.40 1281.38 4.00 1291.05 4.45 C 1291.39 4.83 1292.06 5.60 1292.40 5.98 C 1288.68 10.08 1284.56 13.81 1281.02 18.07 C 1274.51 25.20 1267.81 32.16 1261.07 39.07 C 1253.90 46.26 1246.85 53.58 1240.00 61.06 C 1233.64 67.98 1227.20 74.83 1220.61 81.53 C 1212.53 89.57 1204.63 97.80 1196.92 106.19 C 1195.26 108.07 1193.45 109.87 1192.31 112.14 C 1205.85 128.08 1219.33 144.08 1232.85 160.04 C 1237.36 165.83 1242.71 171.00 1246.87 177.05 C 1247.17 178.03 1247.79 178.74 1248.73 179.19 C 1259.13 190.76 1269.05 202.88 1279.02 214.87 C 1283.53 220.39 1287.95 226.03 1292.93 231.14 C 1293.16 231.41 1293.62 231.93 1293.85 232.19 C 1295.57 234.44 1297.56 236.66 1297.97 239.59 C 1284.65 239.90 1271.31 239.80 1257.99 239.66 C 1257.15 239.33 1256.45 238.81 1255.90 238.10 C 1228.66 206.70 1201.43 175.29 1174.15 143.93 C 1172.20 141.65 1170.45 139.16 1168.03 137.36 C 1156.77 147.61 1146.67 159.09 1135.73 169.67 C 1132.98 172.24 1129.76 174.63 1128.01 178.01 C 1127.64 196.99 1127.97 216.00 1127.86 234.99 C 1127.93 236.68 1127.26 238.25 1126.69 239.81 C 1116.07 239.61 1105.45 239.98 1094.84 239.62 C 1094.54 239.60 1093.94 239.56 1093.64 239.54 C 1092.88 227.05 1093.51 214.51 1093.31 202.00 C 1093.31 164.99 1093.31 127.97 1093.31 90.96 C 1093.43 62.18 1093.06 33.38 1093.49 4.61 Z" />
<path fill="#ffffff" opacity="1.00" d=" M 28.91 299.03 C 49.37 284.90 77.44 282.37 99.95 293.08 C 106.61 296.47 112.56 301.11 117.70 306.52 C 117.82 306.88 118.05 307.60 118.16 307.96 C 116.09 311.44 112.27 313.59 109.88 316.92 C 108.66 317.86 107.76 320.05 105.97 319.65 C 103.31 317.52 101.21 314.76 98.35 312.87 C 90.09 307.21 80.04 304.18 70.03 304.50 C 55.07 304.10 40.29 311.25 30.94 322.88 C 15.45 341.48 18.10 372.67 36.78 388.18 C 45.63 396.04 57.31 400.00 69.04 400.36 C 83.23 401.05 97.36 394.89 106.77 384.29 C 110.55 388.35 114.59 392.16 118.46 396.13 C 118.48 396.50 118.53 397.24 118.55 397.62 C 114.40 401.80 110.11 405.95 105.00 408.96 C 93.01 416.02 78.82 418.88 65.00 417.81 C 54.56 417.94 44.49 414.38 35.29 409.71 C 22.40 403.10 12.55 391.45 6.98 378.18 C 6.64 377.15 6.30 376.13 5.95 375.12 C 0.29 359.07 1.01 340.92 7.49 325.22 C 12.31 314.89 19.49 305.56 28.91 299.03 Z" />
<path fill="#ffffff" opacity="1.00" d=" M 183.01 289.54 C 186.91 288.16 191.09 288.00 195.02 286.79 C 200.74 286.53 206.46 286.58 212.18 286.74 C 226.34 288.94 240.42 294.10 250.96 304.12 C 263.93 316.82 271.73 334.73 271.22 352.97 C 271.43 369.49 264.74 385.60 253.83 397.87 C 244.22 408.33 230.68 414.35 216.97 417.23 C 208.70 418.13 200.33 418.08 192.05 417.39 C 179.10 415.35 166.81 409.60 157.01 400.88 C 150.07 394.57 144.71 386.74 140.88 378.21 C 138.85 372.29 137.00 366.26 136.37 360.02 C 135.97 350.89 135.93 341.62 138.74 332.82 C 144.78 312.01 162.35 295.55 183.01 289.54 M 188.12 306.84 C 178.20 309.72 169.18 315.97 163.51 324.66 C 157.70 331.71 155.41 341.11 154.90 350.07 C 154.22 364.65 159.85 380.28 171.86 389.09 C 190.48 404.92 221.21 403.96 238.54 386.61 C 249.83 375.54 254.43 358.45 251.40 343.08 C 249.39 330.47 241.80 318.80 231.02 311.95 C 218.34 304.18 202.26 302.26 188.12 306.84 Z" />
<path fill="#ffffff" opacity="1.00" d=" M 487.85 286.79 C 501.78 285.78 516.10 287.50 528.90 293.30 C 532.34 295.35 535.85 297.29 539.11 299.62 C 536.97 304.80 534.59 309.87 532.63 315.12 L 532.48 315.52 C 523.69 309.64 513.65 305.07 502.99 304.37 C 492.73 303.03 481.19 304.14 472.99 311.05 C 468.71 314.67 467.05 320.69 467.98 326.11 C 468.56 331.96 473.98 335.70 478.93 337.88 C 494.55 344.04 511.75 345.48 526.77 353.26 C 532.59 357.07 538.25 361.77 541.08 368.31 C 545.20 378.93 544.13 391.72 537.25 400.97 C 534.16 405.60 529.50 408.78 524.92 411.77 C 511.91 419.14 496.39 418.39 481.99 417.36 C 473.03 415.30 463.90 413.05 455.92 408.31 C 452.02 406.05 448.74 402.94 445.38 399.98 C 447.54 394.53 450.50 389.46 453.01 384.18 C 455.78 385.98 457.89 388.61 460.62 390.48 C 467.87 395.57 476.48 398.41 485.15 399.90 C 495.49 401.53 506.84 401.39 516.29 396.32 C 522.12 393.16 525.48 386.47 524.46 379.89 C 524.33 373.95 518.72 370.50 514.10 367.93 C 503.68 362.77 491.85 361.70 480.93 357.95 C 468.81 354.76 456.00 348.21 451.00 336.01 C 447.48 325.30 448.33 312.55 455.41 303.42 C 462.79 293.01 475.75 288.64 487.85 286.79 Z" />
<path fill="#ffffff" opacity="1.00" d=" M 808.36 287.91 C 842.20 287.36 876.09 287.86 909.95 287.67 C 911.26 287.92 913.71 287.06 914.08 288.95 C 914.10 294.42 914.66 299.99 913.57 305.40 C 899.25 305.57 884.92 305.38 870.60 305.50 C 870.75 336.34 870.63 367.19 870.67 398.03 C 870.54 404.46 870.95 410.92 870.42 417.34 C 864.17 417.43 857.92 417.50 851.68 417.30 C 851.33 380.02 851.64 342.72 851.53 305.44 C 837.22 305.47 822.91 305.52 808.60 305.41 C 807.87 299.62 808.21 293.73 808.36 287.91 Z" />
<path fill="#ffffff" opacity="1.00" d=" M 1203.80 286.76 C 1217.12 285.78 1230.78 287.20 1242.92 293.10 C 1249.78 296.64 1256.11 301.29 1261.29 307.03 L 1261.33 307.83 C 1258.15 311.78 1254.07 314.92 1251.07 319.03 L 1250.54 319.70 C 1250.11 319.65 1249.24 319.54 1248.81 319.48 C 1245.52 316.34 1242.51 312.72 1238.26 310.84 C 1217.93 299.53 1189.56 303.18 1174.13 321.07 C 1157.33 339.58 1159.21 372.30 1178.75 388.21 C 1186.22 394.70 1195.61 398.81 1205.45 399.87 C 1211.26 401.05 1217.09 399.61 1222.92 399.45 C 1229.45 398.05 1236.50 396.32 1241.52 391.68 C 1241.76 377.62 1241.63 363.55 1241.58 349.49 C 1247.78 349.18 1254.00 349.34 1260.22 349.41 C 1259.46 366.53 1260.09 383.70 1259.89 400.85 C 1254.28 405.90 1247.76 409.77 1240.89 412.84 C 1234.54 415.24 1227.96 417.57 1221.10 417.66 C 1213.60 418.08 1206.05 418.01 1198.59 417.21 C 1185.89 414.50 1173.29 409.32 1163.91 400.10 C 1157.28 394.08 1152.47 386.40 1148.83 378.29 C 1146.85 372.69 1145.11 366.98 1144.37 361.08 C 1143.86 351.32 1143.74 341.31 1146.95 331.95 C 1152.62 314.06 1166.30 298.67 1183.96 291.97 C 1190.26 289.17 1197.10 288.12 1203.80 286.76 Z" />
<path fill="#ffffff" opacity="1.00" d=" M 304.64 287.83 C 309.75 287.73 314.94 287.35 320.02 287.97 C 322.67 290.71 324.84 293.86 327.26 296.80 C 331.97 303.08 337.27 308.95 341.76 315.38 C 342.11 315.78 342.80 316.58 343.14 316.98 C 349.93 325.15 356.39 333.60 363.00 341.92 C 369.08 350.18 375.51 358.21 382.13 366.06 C 386.43 370.95 390.00 376.47 394.53 381.16 C 394.98 350.06 394.63 318.94 394.71 287.84 C 401.06 287.64 407.43 287.46 413.77 287.95 C 413.86 329.65 413.76 371.35 413.82 413.05 C 413.82 414.48 413.63 415.91 413.42 417.34 C 408.86 417.50 404.29 417.29 399.73 417.52 C 397.67 416.43 396.33 414.50 394.90 412.73 C 375.44 387.69 355.35 363.13 335.99 338.02 C 331.76 333.20 328.04 327.97 323.93 323.06 C 323.55 353.34 323.87 383.65 323.78 413.95 C 323.65 415.11 324.10 417.46 322.20 417.35 C 316.50 417.36 310.75 417.70 305.08 417.14 L 304.69 416.17 C 304.58 373.39 304.69 330.61 304.64 287.83 Z" />
<path fill="#ffffff" opacity="1.00" d=" M 574.85 287.85 C 581.26 287.57 587.68 287.60 594.09 287.83 C 594.19 312.40 594.16 336.97 594.11 361.54 C 593.76 373.73 596.87 388.16 608.05 394.97 C 614.66 398.90 622.56 399.95 630.08 400.13 C 638.19 399.38 647.04 397.93 653.10 391.96 C 660.44 385.12 662.70 374.58 663.20 364.94 C 663.40 339.30 663.22 313.66 663.29 288.02 C 669.56 287.31 675.89 287.82 682.19 287.72 C 681.52 307.44 682.09 327.21 681.90 346.95 C 681.65 357.66 682.76 368.55 680.23 379.07 C 678.59 387.09 674.92 394.59 670.05 401.14 C 662.02 410.99 649.54 416.26 637.12 417.60 C 628.43 418.16 619.51 418.30 611.06 415.88 L 610.72 415.73 C 606.01 414.17 601.73 411.67 597.23 409.64 C 597.01 409.27 596.58 408.54 596.37 408.17 C 591.64 405.57 588.49 400.89 584.53 397.31 C 583.95 396.21 583.31 395.15 582.60 394.15 C 578.71 386.67 576.40 378.33 575.31 369.99 C 574.64 363.68 574.88 357.34 574.84 351.01 C 574.85 329.96 574.83 308.91 574.85 287.85 Z" />
<path fill="#ffffff" opacity="1.00" d=" M 725.32 287.97 C 731.67 287.41 738.07 287.70 744.44 287.81 C 744.58 325.10 744.60 362.39 744.43 399.68 C 767.45 399.56 790.49 399.39 813.50 399.77 C 813.44 405.60 813.71 411.45 813.32 417.28 C 784.07 417.53 754.80 417.44 725.55 417.32 C 725.13 374.21 725.59 331.08 725.32 287.97 Z" />
<path fill="#ffffff" opacity="1.00" d=" M 938.60 287.83 C 944.97 287.68 951.39 287.40 957.75 287.99 C 957.71 330.33 957.78 372.68 957.72 415.02 C 958.06 416.70 956.66 417.77 955.08 417.41 C 949.71 417.26 944.28 417.79 938.96 417.10 C 938.29 415.13 938.70 413.01 938.61 410.99 C 938.62 369.94 938.64 328.88 938.60 287.83 Z" />
<path fill="#ffffff" opacity="1.00" d=" M 1001.74 287.85 C 1006.81 287.68 1011.93 287.43 1017.00 287.90 C 1022.18 293.42 1026.41 299.78 1031.32 305.55 C 1044.05 321.87 1057.33 337.83 1069.75 354.35 C 1070.10 354.74 1070.81 355.52 1071.17 355.91 C 1078.14 364.17 1084.43 373.03 1091.58 381.15 C 1092.11 350.05 1091.66 318.93 1091.81 287.83 C 1098.12 287.60 1104.45 287.58 1110.76 287.84 C 1111.64 298.52 1110.94 309.28 1111.16 320.00 C 1111.13 329.67 1111.23 339.35 1111.11 349.03 C 1111.24 370.01 1111.10 390.99 1111.19 411.97 C 1111.27 413.79 1110.88 415.59 1110.43 417.35 C 1105.63 417.16 1100.59 418.00 1095.95 416.97 C 1094.75 414.45 1092.65 412.63 1090.67 410.76 L 1090.87 409.42 C 1090.51 409.24 1089.79 408.90 1089.43 408.73 C 1089.11 408.28 1088.46 407.37 1088.14 406.91 C 1086.39 405.16 1084.95 403.16 1083.47 401.20 C 1083.18 400.95 1082.59 400.45 1082.29 400.20 C 1068.27 382.89 1054.67 365.24 1040.73 347.87 C 1034.27 339.56 1027.51 331.48 1021.31 322.99 C 1020.58 327.64 1020.90 332.35 1020.85 337.03 C 1020.84 359.03 1020.85 381.02 1020.85 403.02 C 1020.67 407.79 1021.26 412.62 1020.44 417.36 C 1014.49 417.49 1008.54 417.32 1002.59 417.47 C 1001.94 416.40 1001.65 415.25 1001.73 414.02 C 1001.76 371.96 1001.74 329.90 1001.74 287.85 Z" />
</g>
<g id="#f54818ff">
<path fill="#f54818" opacity="1.00" d=" M 1291.05 4.45 C 1293.39 4.28 1292.96 6.66 1291.64 7.72 C 1288.06 11.13 1284.92 15.01 1281.02 18.07 C 1284.56 13.81 1288.68 10.08 1292.40 5.98 C 1292.06 5.60 1291.39 4.83 1291.05 4.45 Z" />
<path fill="#f54818" opacity="1.00" d=" M 751.73 25.94 C 756.55 24.45 759.66 19.40 764.83 18.34 C 764.77 18.46 764.65 18.69 764.60 18.80 C 763.38 19.64 761.87 20.15 761.03 21.42 C 759.75 22.13 758.43 22.75 757.11 23.33 L 757.52 24.30 C 751.33 25.63 748.30 32.13 742.76 34.77 C 741.68 36.09 740.62 37.42 739.46 38.66 C 738.10 38.88 737.24 39.93 736.26 40.75 C 739.03 37.37 741.73 33.83 745.55 31.56 C 747.29 29.31 750.37 28.50 751.73 25.94 Z" />
<path fill="#f54818" opacity="1.00" d=" M 205.81 24.22 C 209.86 26.18 212.97 29.62 216.20 32.68 C 218.90 35.48 222.32 37.81 223.91 41.50 C 221.42 43.48 219.56 46.18 216.80 47.81 C 218.73 45.41 221.36 43.57 222.94 40.93 C 218.37 34.37 211.80 29.44 205.81 24.22 Z" />
<path fill="#f54818" opacity="1.00" d=" M 532.82 24.23 C 535.35 25.05 537.28 26.97 539.29 28.62 C 544.43 33.15 550.09 37.32 553.87 43.14 C 547.43 36.22 540.42 29.86 532.82 24.23 Z" />
<path fill="#f54818" opacity="1.00" d=" M 1240.00 61.06 C 1246.85 53.58 1253.90 46.26 1261.07 39.07 C 1256.95 44.81 1251.44 49.45 1246.69 54.68 C 1244.53 56.88 1242.51 59.25 1240.00 61.06 Z" />
<path fill="#f54818" opacity="1.00" d=" M 554.81 44.14 C 558.17 46.53 560.10 50.27 562.40 53.59 C 571.50 66.89 577.99 82.03 580.83 97.91 C 580.87 101.05 582.34 103.90 582.67 106.98 C 583.19 117.34 583.15 127.73 582.59 138.10 C 582.40 139.91 581.63 141.60 581.27 143.38 C 580.37 152.33 576.88 160.71 574.18 169.21 L 573.31 169.82 C 576.11 161.01 579.54 152.32 580.77 143.09 C 582.59 135.88 582.31 128.41 582.42 121.04 C 582.73 105.67 579.31 90.40 573.87 76.08 C 568.87 64.69 562.64 53.83 554.81 44.14 Z" />
<path fill="#f54818" opacity="1.00" d=" M 882.20 51.52 C 884.40 52.63 886.57 53.90 888.24 55.76 C 891.35 58.98 894.86 61.89 897.38 65.64 C 898.15 66.84 899.65 67.25 900.47 68.42 C 902.15 73.40 906.35 77.04 907.82 82.09 C 910.86 88.98 913.67 96.25 914.55 103.73 C 913.29 100.95 912.40 98.05 912.03 95.02 C 910.51 89.56 907.49 84.68 905.58 79.38 C 902.29 75.55 901.61 69.48 896.76 67.19 L 897.51 66.19 C 896.18 65.21 894.90 64.18 893.63 63.15 C 893.38 62.78 892.90 62.05 892.66 61.68 C 892.03 60.92 891.30 60.26 890.48 59.73 C 888.50 57.48 886.47 55.13 883.64 53.97 C 883.14 53.16 882.68 52.33 882.20 51.52 Z" />
<path fill="#f54818" opacity="1.00" d=" M 930.64 53.97 C 936.00 59.83 938.76 67.51 942.40 74.46 C 945.93 83.77 949.42 93.36 949.88 103.41 C 948.14 97.02 947.56 90.31 945.14 84.09 C 941.97 73.35 936.44 63.50 930.64 53.97 Z" />
<path fill="#f54818" opacity="1.00" d=" M 46.15 113.41 C 47.21 94.77 55.00 76.34 68.10 62.93 C 65.94 66.66 62.65 69.59 60.46 73.32 C 54.93 81.43 50.96 90.60 48.65 100.13 C 48.30 104.65 46.98 108.98 46.15 113.41 Z" />
<path fill="#f54818" opacity="1.00" d=" M 754.66 71.12 C 756.05 68.74 757.75 66.52 760.02 64.92 C 751.54 75.47 745.17 87.88 742.33 101.16 C 741.68 105.24 740.87 109.28 739.98 113.31 C 739.33 109.40 741.30 105.77 741.54 101.91 C 743.57 90.83 748.48 80.46 754.66 71.12 Z" />
<path fill="#f54818" opacity="1.00" d=" M 388.98 66.63 C 389.27 66.62 389.83 66.58 390.11 66.56 C 382.20 77.42 375.73 89.70 373.58 103.08 C 369.65 120.59 371.60 139.14 377.86 155.87 C 382.24 166.71 389.12 176.35 397.09 184.84 C 391.24 180.42 387.30 174.05 383.31 168.01 C 376.05 156.61 372.64 143.28 371.10 130.00 C 370.86 121.61 370.43 113.06 372.58 104.86 C 374.34 90.85 381.31 78.23 388.98 66.63 Z" />
<path fill="#f54818" opacity="1.00" d=" M 1196.92 106.19 C 1204.63 97.80 1212.53 89.57 1220.61 81.53 C 1217.23 86.42 1212.47 90.20 1208.57 94.68 C 1204.58 98.40 1201.34 102.96 1196.92 106.19 Z" />
<path fill="#f54818" opacity="1.00" d=" M 46.11 129.56 C 46.96 133.98 48.26 138.31 48.50 142.82 C 49.49 146.98 51.09 150.97 52.28 155.08 C 53.22 158.29 55.43 160.99 56.09 164.29 C 52.16 158.12 50.14 151.01 48.17 144.03 C 47.58 139.19 45.90 134.48 46.11 129.56 Z" />
<path fill="#f54818" opacity="1.00" d=" M 740.15 132.44 C 742.14 137.76 741.81 143.61 744.00 148.89 C 746.78 159.28 752.41 168.61 758.81 177.16 C 762.23 181.38 766.31 184.99 770.12 188.85 C 761.63 182.86 755.49 174.20 750.13 165.42 C 744.59 155.27 741.14 143.94 740.15 132.44 Z" />
<path fill="#f54818" opacity="1.00" d=" M 922.34 200.66 C 936.16 184.87 945.01 165.17 949.15 144.67 C 949.63 149.12 947.52 153.34 946.54 157.60 C 942.13 172.85 934.40 187.02 924.39 199.29 C 920.81 202.75 918.09 207.14 913.91 209.93 C 916.76 206.88 919.50 203.73 922.34 200.66 Z" />
<path fill="#f54818" opacity="1.00" d=" M 566.34 183.35 C 568.84 178.94 570.78 174.23 573.31 169.83 C 572.00 174.79 569.15 179.19 566.85 183.75 C 561.95 190.76 557.82 198.65 551.02 204.06 C 556.78 197.67 561.79 190.66 566.34 183.35 Z" />
<path fill="#f54818" opacity="1.00" d=" M 1128.01 178.01 C 1129.76 174.63 1132.98 172.24 1135.73 169.67 C 1133.62 173.73 1127.67 175.82 1128.41 181.06 C 1128.39 199.75 1128.58 218.45 1128.32 237.14 C 1128.53 239.35 1125.94 240.55 1124.05 240.35 C 1115.71 240.38 1107.36 240.32 1099.02 240.38 C 1097.56 240.45 1096.17 240.12 1094.84 239.62 C 1105.45 239.98 1116.07 239.61 1126.69 239.81 C 1127.26 238.25 1127.93 236.68 1127.86 234.99 C 1127.97 216.00 1127.64 196.99 1128.01 178.01 Z" />
<path fill="#f54818" opacity="1.00" d=" M 1246.87 177.05 C 1248.59 176.74 1249.21 177.45 1248.73 179.19 C 1247.79 178.74 1247.17 178.03 1246.87 177.05 Z" />
<path fill="#f54818" opacity="1.00" d=" M 518.86 227.87 C 530.38 221.95 540.97 214.31 550.09 205.10 C 547.17 209.84 542.20 212.72 538.12 216.33 C 535.71 218.52 532.95 220.28 530.13 221.88 C 526.43 223.98 523.01 226.70 518.86 227.87 Z" />
<path fill="#f54818" opacity="1.00" d=" M 1279.02 214.87 C 1282.15 217.24 1284.33 220.59 1286.95 223.48 C 1288.91 226.05 1291.33 228.30 1292.93 231.14 C 1287.95 226.03 1283.53 220.39 1279.02 214.87 Z" />
<path fill="#f54818" opacity="1.00" d=" M 1293.85 232.19 C 1296.26 233.97 1298.29 236.34 1298.91 239.36 C 1295.10 240.81 1290.99 240.29 1287.02 240.35 C 1279.01 240.36 1271.00 240.33 1263.00 240.38 C 1261.28 240.42 1259.60 240.19 1257.99 239.66 C 1271.31 239.80 1284.65 239.90 1297.97 239.59 C 1297.56 236.66 1295.57 234.44 1293.85 232.19 Z" />
<path fill="#f54818" opacity="1.00" d=" M 682.19 287.72 C 682.65 289.10 682.68 290.57 682.66 292.02 C 682.43 317.69 682.94 343.38 682.36 369.05 C 681.79 379.35 678.58 389.55 672.91 398.21 C 672.23 399.43 671.08 400.25 670.05 401.14 C 674.92 394.59 678.59 387.09 680.23 379.07 C 682.76 368.55 681.65 357.66 681.90 346.95 C 682.09 327.21 681.52 307.44 682.19 287.72 Z" />
<path fill="#f54818" opacity="1.00" d=" M 99.95 293.08 C 107.30 295.54 113.01 301.08 118.42 306.41 C 119.05 307.50 118.96 309.05 117.78 309.72 C 115.05 312.02 113.01 315.13 109.88 316.92 C 112.27 313.59 116.09 311.44 118.16 307.96 C 118.05 307.60 117.82 306.88 117.70 306.52 C 112.56 301.11 106.61 296.47 99.95 293.08 Z" />
<path fill="#f54818" opacity="1.00" d=" M 528.90 293.30 C 532.60 295.00 537.00 296.58 539.50 299.88 C 537.41 305.01 535.87 310.58 532.63 315.12 C 534.59 309.87 536.97 304.80 539.11 299.62 C 535.85 297.29 532.34 295.35 528.90 293.30 Z" />
<path fill="#f54818" opacity="1.00" d=" M 1242.92 293.10 C 1250.18 295.46 1255.84 300.98 1261.34 306.05 C 1262.75 307.80 1260.92 309.49 1259.71 310.64 C 1256.69 313.30 1254.44 316.78 1251.07 319.03 C 1254.07 314.92 1258.15 311.78 1261.33 307.83 L 1261.29 307.03 C 1256.11 301.29 1249.78 296.64 1242.92 293.10 Z" />
<path fill="#f54818" opacity="1.00" d=" M 250.96 304.12 C 253.53 305.30 254.94 307.90 256.87 309.83 C 273.02 329.04 276.50 357.63 266.03 380.34 C 262.89 386.72 259.45 393.33 253.83 397.87 C 264.74 385.60 271.43 369.49 271.22 352.97 C 271.73 334.73 263.93 316.82 250.96 304.12 Z" />
<path fill="#f54818" opacity="1.00" d=" M 467.98 326.11 C 467.05 320.69 468.71 314.67 472.99 311.05 C 469.84 315.71 467.19 321.23 468.82 326.98 C 469.69 332.39 474.98 334.91 478.93 337.88 C 473.98 335.70 468.56 331.96 467.98 326.11 Z" />
<path fill="#f54818" opacity="1.00" d=" M 341.76 315.38 L 342.66 315.26 L 343.38 316.07 L 343.14 316.98 C 342.80 316.58 342.11 315.78 341.76 315.38 Z" />
<path fill="#f54818" opacity="1.00" d=" M 1178.75 388.21 C 1159.21 372.30 1157.33 339.58 1174.13 321.07 C 1168.23 329.30 1164.06 338.87 1163.48 349.07 C 1162.92 359.83 1165.48 371.02 1171.84 379.85 C 1173.78 382.92 1176.47 385.40 1178.75 388.21 Z" />
<path fill="#f54818" opacity="1.00" d=" M 36.78 388.18 C 18.10 372.67 15.45 341.48 30.94 322.88 C 29.31 326.23 26.94 329.18 25.56 332.67 C 19.98 345.65 20.48 360.98 26.32 373.78 C 28.78 379.28 33.00 383.61 36.78 388.18 Z" />
<path fill="#f54818" opacity="1.00" d=" M 154.90 350.07 C 155.41 341.11 157.70 331.71 163.51 324.66 C 161.10 329.46 158.33 334.18 157.21 339.49 C 154.36 350.09 155.27 361.55 159.31 371.73 C 162.07 378.41 166.70 384.11 171.86 389.09 C 159.85 380.28 154.22 364.65 154.90 350.07 Z" />
<path fill="#f54818" opacity="1.00" d=" M 363.00 341.92 C 367.19 345.72 370.19 350.64 373.83 354.96 C 376.55 358.69 379.98 361.93 382.13 366.06 C 375.51 358.21 369.08 350.18 363.00 341.92 Z" />
<path fill="#f54818" opacity="1.00" d=" M 1260.22 349.41 C 1261.10 353.86 1260.43 358.43 1260.63 362.94 C 1260.46 375.62 1260.98 388.35 1260.38 401.01 C 1254.88 406.33 1248.11 410.34 1240.89 412.84 C 1247.76 409.77 1254.28 405.90 1259.89 400.85 C 1260.09 383.70 1259.46 366.53 1260.22 349.41 Z" />
<path fill="#f54818" opacity="1.00" d=" M 526.77 353.26 C 535.70 357.30 542.71 366.05 543.74 375.93 C 546.45 390.21 538.45 406.08 524.92 411.77 C 529.50 408.78 534.16 405.60 537.25 400.97 C 544.13 391.72 545.20 378.93 541.08 368.31 C 538.25 361.77 532.59 357.07 526.77 353.26 Z" />
<path fill="#f54818" opacity="1.00" d=" M 1069.75 354.35 L 1070.65 354.21 L 1071.39 355.01 L 1071.17 355.91 C 1070.81 355.52 1070.10 354.74 1069.75 354.35 Z" />
<path fill="#f54818" opacity="1.00" d=" M 594.11 361.54 C 595.24 370.27 595.82 379.55 600.84 387.14 C 602.68 390.23 605.65 392.35 608.05 394.97 C 596.87 388.16 593.76 373.73 594.11 361.54 Z" />
<path fill="#f54818" opacity="1.00" d=" M 575.31 369.99 C 576.40 378.33 578.71 386.67 582.60 394.15 C 583.31 395.15 583.95 396.21 584.53 397.31 C 588.49 400.89 591.64 405.57 596.37 408.17 C 596.58 408.54 597.01 409.27 597.23 409.64 C 601.73 411.67 606.01 414.17 610.72 415.73 C 607.08 415.63 603.64 414.40 600.68 412.33 C 594.37 410.23 590.65 404.36 585.71 400.27 C 583.70 397.92 582.12 395.24 580.51 392.62 C 578.49 385.17 574.82 377.90 575.31 369.99 Z" />
<path fill="#f54818" opacity="1.00" d=" M 1293.94 388.85 C 1297.04 388.36 1300.12 389.11 1303.14 389.80 C 1307.34 392.92 1311.28 397.42 1310.92 403.01 C 1311.50 409.22 1307.43 415.34 1301.71 417.60 C 1297.84 418.62 1293.41 419.22 1289.76 417.19 C 1282.89 413.79 1279.60 404.76 1282.72 397.75 C 1284.64 393.22 1288.81 389.15 1293.94 388.85 Z" />
<path fill="#f54818" opacity="1.00" d=" M 1082.29 400.20 C 1082.59 400.45 1083.18 400.95 1083.47 401.20 C 1084.95 403.16 1086.39 405.16 1088.14 406.91 C 1088.46 407.37 1089.11 408.28 1089.43 408.73 C 1089.79 408.90 1090.51 409.24 1090.87 409.42 L 1090.67 410.76 C 1092.65 412.63 1094.75 414.45 1095.95 416.97 C 1092.73 415.84 1091.54 412.05 1089.23 409.77 C 1086.36 407.03 1083.78 403.91 1082.29 400.20 Z" />
</g>
</svg>
