<?xml version="1.0" encoding="UTF-8" ?>
<!DOCTYPE svg PUBLIC "-//W3C//DTD SVG 1.1//EN" "http://www.w3.org/Graphics/SVG/1.1/DTD/svg11.dtd">
<svg width="1314pt" height="420pt" viewBox="0 0 1314 420" version="1.1" xmlns="http://www.w3.org/2000/svg">
<g id="#ffffffff">
</g>
<g id="#000000ff">
<path fill="#000000" opacity="1.00" d=" M 98.91 6.95 C 114.88 2.99 131.55 1.15 147.98 2.91 C 152.60 4.01 157.47 3.54 162.01 4.98 C 179.65 9.13 196.99 16.37 210.75 28.39 C 214.37 31.75 218.01 35.08 221.43 38.64 C 221.50 39.17 221.63 40.23 221.69 40.76 C 216.93 45.33 212.37 50.10 207.61 54.67 C 205.33 56.77 203.39 59.32 200.60 60.80 C 198.71 58.72 196.70 56.75 194.39 55.14 C 182.89 43.40 166.99 36.89 151.14 33.65 C 140.74 32.81 130.26 32.35 119.87 33.54 C 111.45 35.56 102.73 37.11 95.03 41.32 C 87.45 45.02 80.28 49.58 73.85 55.05 C 59.73 67.34 49.62 84.54 46.53 103.04 C 44.82 107.88 45.60 113.08 44.96 118.08 C 44.49 132.13 47.03 146.30 52.94 159.09 C 61.63 177.87 77.50 193.11 96.41 201.41 C 105.29 205.89 115.32 207.09 124.94 209.12 C 131.28 209.41 137.64 209.51 143.98 209.33 C 151.90 207.82 160.01 206.77 167.50 203.55 C 180.47 199.15 191.75 190.71 200.73 180.48 C 207.71 186.05 213.37 193.07 219.88 199.16 C 221.17 200.22 222.69 202.37 220.84 203.68 C 216.30 208.27 211.85 213.04 206.52 216.73 C 195.92 225.31 183.13 230.63 170.21 234.63 C 160.87 236.50 151.56 238.96 141.98 239.01 C 134.33 239.97 126.69 238.58 119.03 238.70 C 114.96 238.69 111.05 237.35 107.01 236.99 C 102.82 236.70 98.97 234.88 94.96 233.75 C 83.12 230.44 72.06 224.80 61.67 218.30 C 43.35 205.74 28.90 187.55 20.95 166.81 C 19.76 161.73 17.68 156.93 16.41 151.88 C 11.58 132.69 11.28 112.34 15.78 93.06 C 18.99 76.26 27.19 60.87 37.12 47.11 C 40.22 43.16 43.99 39.79 47.07 35.82 C 61.36 21.72 79.72 12.39 98.91 6.95 Z" />
<path fill="#000000" opacity="1.00" d=" M 406.83 13.58 C 419.93 6.97 434.54 4.28 449.02 2.76 C 467.92 1.27 487.12 3.86 505.00 10.09 C 510.19 12.11 515.17 14.62 520.34 16.72 C 537.25 25.96 552.50 38.88 562.60 55.44 C 590.98 98.09 587.50 159.23 554.11 198.18 C 550.00 202.74 546.17 207.65 541.04 211.15 C 535.70 216.35 529.14 219.96 522.81 223.78 C 514.85 227.84 506.71 231.58 498.07 233.95 C 491.63 236.64 484.68 237.18 477.89 238.47 C 473.26 238.97 468.57 238.55 463.95 239.13 C 458.62 239.80 453.33 238.59 448.00 238.76 C 441.58 239.02 435.38 237.10 429.04 236.50 C 421.77 233.95 414.16 232.22 407.18 228.93 C 392.10 221.91 378.38 211.97 367.10 199.74 C 366.89 199.50 366.46 199.02 366.25 198.78 C 358.01 189.24 351.31 178.42 346.46 166.79 C 345.13 163.11 344.15 159.32 342.56 155.74 C 342.49 155.57 342.37 155.21 342.30 155.04 C 337.85 137.37 336.60 118.89 339.29 100.83 C 339.33 100.56 339.41 100.02 339.44 99.74 C 341.86 89.06 344.20 78.16 349.52 68.46 C 353.47 59.61 359.34 51.84 365.18 44.18 C 376.46 30.96 390.84 20.38 406.83 13.58 M 445.86 33.37 C 440.91 34.58 435.82 35.28 431.02 37.04 C 417.94 40.70 406.12 48.02 396.04 56.98 C 393.30 60.95 389.38 63.93 386.71 67.95 C 380.53 77.11 375.50 87.16 372.80 97.91 C 372.45 101.08 371.61 104.15 370.89 107.25 C 370.12 115.85 370.12 124.52 370.75 133.14 C 372.12 140.91 373.79 148.61 376.75 155.96 C 385.18 175.43 400.62 192.04 420.11 200.69 C 429.33 205.62 439.85 207.07 449.97 209.10 C 456.31 209.46 462.69 209.45 469.04 209.14 C 476.39 207.88 483.71 206.43 490.87 204.32 C 510.07 197.54 526.96 184.00 537.05 166.24 C 539.50 163.86 540.32 160.33 542.01 157.43 C 548.39 141.87 550.61 124.75 548.48 108.06 C 547.05 103.29 547.13 98.19 545.23 93.54 C 543.92 90.32 543.70 86.35 541.19 83.79 L 540.97 83.36 C 539.61 77.91 536.13 73.38 533.28 68.66 C 531.47 65.56 528.79 63.12 526.46 60.44 C 525.05 58.87 523.76 57.13 521.89 56.09 C 510.62 45.41 496.14 38.31 481.03 35.02 C 469.61 31.85 457.56 32.76 445.86 33.37 Z" />
<path fill="#000000" opacity="1.00" d=" M 791.97 7.29 C 819.11 -0.24 848.59 0.92 875.03 10.66 C 882.00 14.01 889.51 16.34 895.82 20.92 C 913.77 31.74 928.45 47.86 937.53 66.75 C 939.49 70.87 941.89 74.83 943.06 79.28 C 944.41 83.86 946.52 88.26 946.88 93.07 C 956.28 131.62 945.62 174.98 917.74 203.57 C 907.81 214.17 895.43 222.39 882.12 228.16 C 874.94 231.79 867.05 233.61 859.49 236.22 C 851.74 237.60 843.96 239.17 836.04 238.83 C 827.80 239.92 819.55 238.56 811.29 238.58 C 803.74 237.34 796.06 236.65 788.92 233.71 C 781.34 231.63 774.14 228.50 767.17 224.90 C 759.66 219.92 751.83 215.31 745.26 209.08 C 739.84 205.04 736.00 199.41 731.13 194.80 C 730.91 194.54 730.46 194.02 730.24 193.76 C 726.93 188.08 722.53 183.07 719.83 177.03 C 711.31 161.20 707.33 143.29 706.20 125.45 C 705.76 122.49 705.69 119.47 706.18 116.51 C 707.41 99.27 710.70 81.73 719.03 66.40 C 723.80 56.31 730.91 47.57 738.22 39.23 C 742.23 34.21 747.77 30.79 752.52 26.54 C 764.48 18.02 777.86 11.41 791.97 7.29 M 776.03 48.09 C 768.67 52.44 762.92 58.90 757.30 65.22 C 746.63 79.25 739.65 96.35 738.96 114.04 C 737.68 130.75 740.65 147.93 748.51 162.80 C 757.22 179.36 771.49 192.89 788.51 200.67 C 797.57 205.57 807.94 206.97 817.90 208.99 C 824.22 209.58 830.60 209.36 836.95 209.20 C 844.72 208.00 852.44 206.37 859.98 204.12 C 871.41 199.85 882.04 193.46 890.86 184.99 C 895.91 181.05 899.81 175.67 903.35 170.35 C 907.99 163.58 911.46 156.04 913.70 148.14 C 915.80 143.16 915.70 137.67 917.24 132.54 C 917.84 124.45 918.00 116.25 917.06 108.19 C 915.65 104.18 915.87 99.83 914.43 95.83 C 913.01 91.46 911.89 86.95 909.70 82.89 C 907.12 77.72 904.79 72.23 900.83 67.94 C 892.47 56.58 881.35 47.16 868.42 41.38 C 861.10 37.66 853.02 35.92 845.17 33.85 C 835.15 32.36 824.96 32.71 814.88 33.31 C 801.19 35.74 787.56 40.09 776.03 48.09 Z" />
<path fill="#000000" opacity="1.00" d=" M 1094.15 4.15 C 1105.13 4.17 1116.12 4.18 1127.10 4.16 C 1127.44 43.09 1127.15 82.04 1127.25 120.99 C 1127.36 124.35 1126.78 127.81 1127.80 131.09 C 1129.26 130.65 1130.33 129.50 1131.37 128.42 C 1146.95 112.29 1162.58 96.20 1178.26 80.18 C 1190.60 68.23 1202.30 55.61 1214.39 43.40 C 1216.72 41.03 1219.06 38.67 1221.19 36.11 C 1221.42 35.87 1221.87 35.41 1222.10 35.17 C 1230.39 27.10 1238.46 18.76 1246.26 10.21 C 1248.41 8.19 1250.06 5.13 1252.96 4.18 C 1263.30 4.13 1273.65 4.20 1283.99 4.16 C 1286.56 4.14 1289.17 3.87 1291.72 4.50 C 1281.26 15.94 1270.25 26.85 1259.66 38.15 L 1259.20 38.45 C 1256.17 40.19 1253.79 42.82 1251.51 45.41 C 1250.04 46.95 1248.55 48.50 1247.46 50.32 C 1245.26 52.68 1243.48 55.39 1241.23 57.70 C 1224.52 74.64 1208.46 92.21 1191.83 109.23 C 1191.74 109.81 1191.56 110.96 1191.48 111.54 C 1196.62 117.86 1202.03 123.97 1207.21 130.27 C 1209.47 132.85 1211.42 135.73 1214.06 137.97 L 1214.16 138.37 C 1214.44 142.98 1220.55 143.57 1220.78 148.25 C 1222.15 148.95 1223.57 149.65 1224.74 150.71 C 1236.29 165.04 1248.49 178.86 1260.26 193.03 C 1272.35 207.20 1284.20 221.58 1296.43 235.64 C 1296.47 236.06 1296.55 236.92 1296.60 237.34 C 1285.75 237.97 1274.88 237.47 1264.02 237.65 C 1261.56 237.51 1258.73 238.05 1256.66 236.40 C 1249.50 228.21 1242.35 220.01 1235.26 211.77 C 1229.96 204.76 1223.99 198.27 1217.99 191.86 C 1213.05 186.20 1208.07 180.57 1203.27 174.80 C 1200.66 171.12 1197.45 167.94 1194.56 164.50 C 1191.41 160.87 1188.48 157.04 1184.96 153.77 C 1181.30 149.53 1177.25 145.48 1174.14 140.83 C 1173.85 139.82 1173.22 139.12 1172.25 138.74 C 1170.73 137.71 1169.52 136.30 1168.06 135.22 C 1161.86 140.23 1156.76 146.46 1150.98 151.94 C 1143.23 160.04 1134.92 167.65 1127.50 176.03 C 1126.81 196.43 1127.62 216.89 1127.10 237.30 C 1116.25 237.93 1105.37 237.62 1094.52 237.51 C 1093.92 225.69 1094.44 213.80 1094.27 201.95 C 1094.19 136.02 1094.42 70.08 1094.15 4.15 Z" />
<path fill="#000000" opacity="1.00" d=" M 49.84 288.80 C 65.69 284.66 83.15 284.95 98.18 291.92 C 105.62 295.08 112.25 300.01 117.63 306.02 C 117.62 306.39 117.60 307.15 117.58 307.52 C 113.77 310.98 110.67 315.50 106.17 318.06 C 99.20 310.69 90.01 305.31 79.96 303.57 C 69.54 302.14 58.55 302.68 48.90 307.20 C 43.79 309.69 39.06 312.90 34.82 316.70 L 34.87 315.47 L 32.77 317.76 L 34.63 317.81 C 32.94 318.22 32.06 319.81 30.99 321.02 C 15.43 339.94 17.60 371.03 36.15 387.22 C 55.26 405.02 89.23 404.48 106.41 384.19 C 109.90 386.80 112.63 390.27 115.79 393.26 C 116.60 394.21 118.20 395.10 117.67 396.59 C 105.27 410.94 85.66 417.26 67.08 416.37 C 58.15 416.35 49.24 414.48 41.08 410.85 C 36.69 408.40 32.05 406.32 28.05 403.23 C 15.40 393.87 7.12 379.31 4.19 363.96 C 3.22 359.23 3.28 354.39 2.80 349.60 C 2.65 346.19 3.21 342.80 3.85 339.46 C 5.08 335.24 5.87 330.89 7.55 326.81 C 10.26 320.17 14.11 314.07 18.39 308.34 C 26.46 298.68 37.90 292.35 49.84 288.80 Z" />
<path fill="#000000" opacity="1.00" d=" M 171.74 293.72 C 198.51 279.83 234.71 285.13 254.95 307.97 C 272.75 327.91 275.94 358.98 263.44 382.45 C 255.96 397.40 241.84 408.43 225.95 413.25 C 216.08 416.77 205.39 416.69 195.07 416.06 C 182.63 414.87 170.49 410.07 160.82 402.13 C 150.34 393.24 142.10 381.42 138.99 367.92 C 135.37 353.91 136.93 339.07 141.61 325.52 C 147.43 311.78 158.36 300.30 171.74 293.72 M 166.61 318.73 C 149.70 337.35 150.64 369.50 169.31 386.60 C 188.80 405.68 224.51 404.19 241.82 382.87 C 242.58 382.27 243.26 381.59 243.86 380.84 C 257.95 361.89 256.13 332.53 238.88 316.12 C 237.35 314.65 235.91 312.91 233.83 312.22 C 213.97 297.61 183.10 300.10 166.61 318.73 Z" />
<path fill="#000000" opacity="1.00" d=" M 480.60 287.73 C 491.98 285.34 503.93 285.66 515.21 288.40 C 521.14 291.41 528.25 292.07 533.50 296.41 C 534.86 297.44 537.11 297.39 537.96 299.00 C 538.29 301.38 535.89 303.01 535.36 305.21 C 534.66 307.89 533.25 310.30 532.36 312.91 L 532.15 313.47 C 526.05 310.03 519.98 306.34 513.15 304.50 C 503.34 301.89 492.80 301.29 482.94 303.95 C 476.12 305.96 469.64 310.80 467.86 317.98 C 467.14 322.54 467.14 327.94 470.50 331.53 C 473.28 334.23 476.55 336.49 480.17 337.92 C 490.24 341.72 500.82 343.89 511.17 346.78 C 518.03 349.22 525.38 351.06 531.11 355.81 C 537.38 360.27 542.14 367.20 542.72 375.01 C 543.76 382.20 542.84 389.83 539.26 396.23 C 534.07 405.92 523.87 411.98 513.49 414.63 C 495.68 418.33 476.60 416.69 460.07 408.90 C 454.92 406.37 450.31 402.90 446.12 399.01 C 447.75 393.79 451.07 389.31 453.02 384.22 C 455.94 385.39 457.69 388.27 460.31 389.94 C 472.87 398.64 488.89 401.63 503.93 399.86 C 509.90 398.82 516.37 397.25 520.65 392.62 C 524.12 389.10 525.81 383.86 525.27 378.98 C 524.28 371.40 516.87 367.24 510.48 364.60 C 502.47 361.80 494.10 360.14 485.93 357.87 C 477.37 355.05 468.14 353.04 461.10 347.06 C 455.63 342.25 451.45 336.04 450.10 328.79 C 448.42 320.36 450.21 311.20 454.97 304.02 C 460.63 295.16 470.70 290.23 480.60 287.73 Z" />
<path fill="#000000" opacity="1.00" d=" M 1165.74 302.79 C 1182.59 287.92 1206.78 283.25 1228.47 287.72 C 1239.58 290.34 1250.29 295.44 1258.47 303.52 C 1259.30 304.64 1261.26 305.41 1260.77 307.11 C 1258.58 309.49 1256.40 311.89 1253.91 313.95 C 1252.46 315.31 1250.52 319.47 1248.28 317.00 C 1227.57 295.37 1187.10 298.85 1170.56 323.91 C 1157.75 342.86 1160.16 371.20 1177.45 386.65 C 1192.13 400.98 1215.48 403.10 1234.03 395.91 C 1236.96 394.71 1240.59 393.63 1242.39 390.91 C 1242.86 376.99 1242.60 363.01 1242.49 349.07 C 1248.20 349.05 1253.92 349.34 1259.62 348.87 C 1259.47 365.87 1259.58 382.89 1259.57 399.90 C 1249.69 408.19 1237.61 413.77 1224.87 415.78 C 1217.28 416.60 1209.60 416.61 1201.99 415.96 C 1189.96 414.54 1178.32 409.79 1168.67 402.46 C 1168.62 402.42 1168.50 402.33 1168.44 402.28 C 1162.75 397.86 1157.94 392.30 1154.16 386.18 C 1148.57 375.70 1144.77 364.06 1144.91 352.08 C 1144.62 344.50 1146.29 337.08 1148.06 329.77 C 1151.46 319.47 1157.58 309.98 1165.74 302.79 Z" />
<path fill="#000000" opacity="1.00" d=" M 305.43 287.03 C 310.21 287.28 315.00 286.99 319.78 287.24 C 344.47 318.43 369.12 349.65 394.02 380.68 L 395.34 380.84 C 395.28 349.57 395.51 318.30 395.22 287.04 C 401.29 287.43 407.41 286.69 413.45 287.46 C 413.17 330.09 413.46 372.73 413.30 415.36 C 408.42 415.63 403.53 415.68 398.66 415.33 C 390.97 404.77 382.46 394.81 374.50 384.44 C 372.75 382.11 370.92 379.84 368.86 377.77 C 360.92 367.86 353.01 357.90 345.20 347.89 C 338.47 338.76 331.45 329.76 324.03 321.19 C 322.85 321.91 323.55 323.85 323.31 325.04 C 323.36 355.16 323.34 385.28 323.32 415.41 C 317.37 415.64 311.41 415.57 305.45 415.48 C 305.59 372.67 305.62 329.85 305.43 287.03 Z" />
<path fill="#000000" opacity="1.00" d=" M 575.79 287.06 C 581.76 287.20 587.73 287.15 593.70 287.08 C 593.44 313.03 593.53 338.99 593.65 364.94 C 594.26 373.04 596.32 381.31 600.92 388.11 C 603.71 391.01 606.54 394.05 610.20 395.86 C 621.15 400.67 633.78 400.88 645.02 396.84 C 651.54 394.84 656.61 389.47 659.63 383.51 C 662.88 376.74 664.47 369.13 663.80 361.62 C 663.82 336.81 663.69 311.99 663.86 287.17 C 669.83 287.06 675.79 287.24 681.75 287.06 C 681.41 313.38 681.79 339.72 681.56 366.05 C 680.63 379.84 676.43 394.41 665.75 403.86 C 654.63 414.18 638.70 417.18 623.99 416.32 C 614.11 415.61 603.87 413.24 595.83 407.19 C 592.42 404.26 588.84 401.43 586.27 397.71 C 578.43 387.24 575.97 373.79 575.83 360.99 C 575.81 336.35 575.89 311.70 575.79 287.06 Z" />
<path fill="#000000" opacity="1.00" d=" M 725.77 287.05 C 731.88 287.23 738.00 287.10 744.13 287.13 C 744.15 324.42 744.13 361.70 744.14 398.99 C 767.01 399.14 789.90 399.07 812.78 399.02 C 812.61 404.51 812.67 410.00 812.75 415.50 C 785.19 415.62 757.63 415.49 730.07 415.56 C 728.69 415.36 727.02 415.96 725.86 415.08 C 725.73 372.40 725.91 329.72 725.77 287.05 Z" />
<path fill="#000000" opacity="1.00" d=" M 808.69 287.16 C 843.60 287.09 878.52 287.18 913.44 287.11 C 913.60 292.54 913.51 297.98 913.49 303.41 C 899.19 303.93 884.87 303.58 870.57 303.59 C 870.09 306.03 870.20 308.52 870.22 310.99 C 870.25 345.81 870.20 380.63 870.25 415.45 C 864.12 415.58 857.99 415.66 851.88 415.40 C 852.48 385.27 851.97 355.10 852.14 324.96 C 851.97 317.89 852.52 310.80 851.79 303.76 C 837.42 303.33 823.02 304.09 808.66 303.37 C 808.68 297.97 808.64 292.56 808.69 287.16 Z" />
<path fill="#000000" opacity="1.00" d=" M 939.10 287.05 C 945.17 287.21 951.24 287.15 957.31 287.09 C 957.28 329.84 957.28 372.60 957.31 415.35 C 951.28 415.73 945.24 415.49 939.22 415.52 C 939.13 372.69 939.36 329.87 939.10 287.05 Z" />
<path fill="#000000" opacity="1.00" d=" M 1002.19 287.06 C 1007.08 287.23 1011.98 287.03 1016.88 287.22 C 1018.80 289.92 1021.16 292.29 1022.86 295.16 C 1046.20 323.77 1068.86 352.98 1091.94 381.84 C 1092.86 378.29 1092.32 374.61 1092.45 371.00 C 1092.35 343.02 1092.67 315.04 1092.29 287.07 C 1098.31 287.20 1104.33 287.11 1110.36 287.14 C 1110.50 329.88 1110.45 372.63 1110.39 415.37 C 1105.52 415.66 1100.64 415.59 1095.78 415.41 C 1094.88 414.33 1093.98 413.26 1093.19 412.11 C 1088.43 405.42 1083.30 398.94 1077.88 392.78 C 1072.34 385.75 1066.50 378.89 1061.29 371.62 C 1060.95 371.22 1060.27 370.40 1059.94 370.00 C 1055.17 364.46 1050.76 358.61 1046.28 352.85 C 1040.66 344.81 1034.11 337.46 1028.21 329.62 C 1025.72 326.78 1023.76 323.47 1020.90 320.98 C 1020.12 323.24 1020.49 325.65 1020.44 327.99 C 1020.47 357.11 1020.42 386.24 1020.47 415.36 C 1014.45 415.73 1008.42 415.45 1002.41 415.56 C 1002.12 372.73 1002.56 329.89 1002.19 287.06 Z" />
</g>
<g id="#f64818ff">
<path fill="#f64818" opacity="1.00" d=" M 1232.28 24.20 C 1236.98 19.59 1241.24 14.49 1246.26 10.21 C 1238.46 18.76 1230.39 27.10 1222.10 35.17 C 1224.96 31.09 1229.00 27.96 1232.28 24.20 Z" />
<path fill="#f64818" opacity="1.00" d=" M 31.71 54.09 C 35.80 47.22 41.16 41.14 47.07 35.82 C 43.99 39.79 40.22 43.16 37.12 47.11 C 27.19 60.87 18.99 76.26 15.78 93.06 C 11.28 112.34 11.58 132.69 16.41 151.88 C 17.68 156.93 19.76 161.73 20.95 166.81 C 20.88 167.09 20.74 167.67 20.68 167.95 C 18.79 160.92 15.93 154.17 14.57 146.99 C 8.10 115.43 13.43 80.93 31.71 54.09 Z" />
<path fill="#f64818" opacity="1.00" d=" M 1200.73 56.69 C 1207.66 49.95 1213.88 42.42 1221.19 36.11 C 1219.06 38.67 1216.72 41.03 1214.39 43.40 C 1202.30 55.61 1190.60 68.23 1178.26 80.18 C 1185.29 71.97 1193.36 64.62 1200.73 56.69 Z" />
<path fill="#f64818" opacity="1.00" d=" M 1259.20 38.45 L 1259.66 38.15 C 1259.00 39.49 1257.95 40.55 1256.88 41.54 C 1253.73 44.55 1250.56 47.58 1248.09 51.17 C 1246.03 53.58 1244.60 56.88 1241.23 57.70 C 1243.48 55.39 1245.26 52.68 1247.46 50.32 C 1248.55 48.50 1250.04 46.95 1251.51 45.41 C 1253.79 42.82 1256.17 40.19 1259.20 38.45 Z" />
<path fill="#f64818" opacity="1.00" d=" M 731.66 45.98 C 733.81 43.71 735.71 41.14 738.22 39.23 C 730.91 47.57 723.80 56.31 719.03 66.40 C 710.70 81.73 707.41 99.27 706.18 116.51 C 705.30 108.92 707.29 101.42 708.60 94.00 C 711.98 76.33 720.37 59.89 731.66 45.98 Z" />
<path fill="#f64818" opacity="1.00" d=" M 356.66 54.96 C 359.37 51.28 361.47 46.99 365.18 44.18 C 359.34 51.84 353.47 59.61 349.52 68.46 C 344.20 78.16 341.86 89.06 339.44 99.74 C 339.78 91.03 343.13 82.73 345.87 74.52 C 349.23 67.88 352.06 60.87 356.66 54.96 Z" />
<path fill="#f64818" opacity="1.00" d=" M 521.89 56.09 C 523.76 57.13 525.05 58.87 526.46 60.44 C 528.79 63.12 531.47 65.56 533.28 68.66 C 536.13 73.38 539.61 77.91 540.97 83.36 C 537.43 76.75 534.09 69.91 529.13 64.20 C 526.66 61.54 524.26 58.82 521.89 56.09 Z" />
<path fill="#f64818" opacity="1.00" d=" M 900.83 67.94 C 904.79 72.23 907.12 77.72 909.70 82.89 C 911.89 86.95 913.01 91.46 914.43 95.83 C 915.87 99.83 915.65 104.18 917.06 108.19 C 918.00 116.25 917.84 124.45 917.24 132.54 C 915.70 137.67 915.80 143.16 913.70 148.14 C 911.46 156.04 907.99 163.58 903.35 170.35 C 899.81 175.67 895.91 181.05 890.86 184.99 C 899.46 176.01 906.85 165.65 911.16 153.91 C 917.17 137.41 918.89 119.18 915.07 101.98 C 913.18 89.65 907.26 78.46 900.83 67.94 Z" />
<path fill="#f64818" opacity="1.00" d=" M 541.19 83.79 C 543.70 86.35 543.92 90.32 545.23 93.54 C 547.13 98.19 547.05 103.29 548.48 108.06 C 550.61 124.75 548.39 141.87 542.01 157.43 C 540.32 160.33 539.50 163.86 537.05 166.24 C 541.45 157.61 545.30 148.54 546.77 138.90 C 550.80 120.52 548.15 101.13 541.19 83.79 Z" />
<path fill="#f64818" opacity="1.00" d=" M 337.48 113.02 C 337.78 108.93 337.42 104.61 339.29 100.83 C 336.60 118.89 337.85 137.37 342.30 155.04 C 342.10 154.77 341.70 154.24 341.50 153.97 C 337.98 140.64 336.54 126.78 337.48 113.02 Z" />
<path fill="#f64818" opacity="1.00" d=" M 706.20 125.45 C 707.33 143.29 711.31 161.20 719.83 177.03 C 722.53 183.07 726.93 188.08 730.24 193.76 C 719.33 180.87 712.52 164.83 708.67 148.47 C 707.26 140.89 705.43 133.20 706.20 125.45 Z" />
<path fill="#f64818" opacity="1.00" d=" M 1214.16 138.37 C 1216.29 141.44 1220.14 142.97 1221.31 146.71 C 1222.44 148.13 1224.60 148.56 1224.74 150.71 C 1223.57 149.65 1222.15 148.95 1220.78 148.25 C 1220.55 143.57 1214.44 142.98 1214.16 138.37 Z" />
<path fill="#f64818" opacity="1.00" d=" M 1172.25 138.74 C 1173.22 139.12 1173.85 139.82 1174.14 140.83 C 1172.44 141.15 1171.81 140.45 1172.25 138.74 Z" />
<path fill="#f64818" opacity="1.00" d=" M 1184.96 153.77 C 1188.48 157.04 1191.41 160.87 1194.56 164.50 C 1197.45 167.94 1200.66 171.12 1203.27 174.80 C 1196.76 168.19 1190.68 161.06 1184.96 153.77 Z" />
<path fill="#f64818" opacity="1.00" d=" M 342.56 155.74 C 344.15 159.32 345.13 163.11 346.46 166.79 C 351.31 178.42 358.01 189.24 366.25 198.78 C 363.76 197.01 361.96 194.47 360.11 192.08 C 352.30 181.10 345.28 169.06 342.56 155.74 Z" />
<path fill="#f64818" opacity="1.00" d=" M 1217.99 191.86 C 1223.99 198.27 1229.96 204.76 1235.26 211.77 C 1232.48 209.54 1230.56 206.47 1228.16 203.88 C 1224.82 199.83 1220.89 196.24 1217.99 191.86 Z" />
<path fill="#f64818" opacity="1.00" d=" M 731.13 194.80 C 736.00 199.41 739.84 205.04 745.26 209.08 C 751.83 215.31 759.66 219.92 767.17 224.90 C 762.02 222.87 757.87 218.95 753.13 216.16 C 745.05 209.88 737.10 203.19 731.13 194.80 Z" />
<path fill="#f64818" opacity="1.00" d=" M 367.10 199.74 C 378.38 211.97 392.10 221.91 407.18 228.93 C 397.89 225.56 389.79 219.81 381.87 214.06 C 376.89 209.38 370.69 205.67 367.10 199.74 Z" />
<path fill="#f64818" opacity="1.00" d=" M 304.86 286.95 L 305.43 287.03 C 305.62 329.85 305.59 372.67 305.45 415.48 L 305.43 416.14 C 304.51 413.19 304.97 410.07 304.89 407.05 C 304.87 367.01 304.93 326.98 304.86 286.95 Z" />
<path fill="#f64818" opacity="1.00" d=" M 575.01 286.98 L 575.79 287.06 C 575.89 311.70 575.81 336.35 575.83 360.99 C 575.97 373.79 578.43 387.24 586.27 397.71 C 588.84 401.43 592.42 404.26 595.83 407.19 C 586.94 402.00 581.36 392.59 578.25 383.02 C 574.12 370.09 575.28 356.39 575.12 343.04 C 575.05 324.35 575.26 305.66 575.01 286.98 Z" />
<path fill="#f64818" opacity="1.00" d=" M 515.21 288.40 C 517.08 287.93 518.89 288.94 520.66 289.45 C 525.23 291.47 530.61 292.10 534.33 295.68 C 535.74 296.41 537.28 296.87 538.75 297.49 C 539.06 300.95 536.35 303.67 535.78 306.97 C 535.27 309.16 534.53 311.88 532.36 312.91 C 533.25 310.30 534.66 307.89 535.36 305.21 C 535.89 303.01 538.29 301.38 537.96 299.00 C 537.11 297.39 534.86 297.44 533.50 296.41 C 528.25 292.07 521.14 291.41 515.21 288.40 Z" />
<path fill="#f64818" opacity="1.00" d=" M 14.67 312.50 C 15.66 310.90 16.91 309.49 18.39 308.34 C 14.11 314.07 10.26 320.17 7.55 326.81 C 5.87 330.89 5.08 335.24 3.85 339.46 C 4.64 329.65 9.21 320.53 14.67 312.50 Z" />
<path fill="#f64818" opacity="1.00" d=" M 233.83 312.22 C 235.91 312.91 237.35 314.65 238.88 316.12 C 256.13 332.53 257.95 361.89 243.86 380.84 C 243.26 381.59 242.58 382.27 241.82 382.87 C 250.54 371.54 254.53 356.65 251.87 342.53 C 249.97 330.60 243.35 319.63 233.83 312.22 Z" />
<path fill="#f64818" opacity="1.00" d=" M 324.03 321.19 C 331.45 329.76 338.47 338.76 345.20 347.89 C 343.98 346.95 343.00 345.74 342.10 344.51 C 336.16 336.67 329.61 329.28 324.03 321.19 Z" />
<path fill="#f64818" opacity="1.00" d=" M 1020.90 320.98 C 1023.76 323.47 1025.72 326.78 1028.21 329.62 C 1034.11 337.46 1040.66 344.81 1046.28 352.85 C 1043.89 350.90 1042.28 348.23 1040.34 345.89 C 1033.92 337.54 1027.04 329.54 1020.90 320.98 Z" />
<path fill="#f64818" opacity="1.00" d=" M 139.76 329.78 C 140.26 328.31 140.66 326.77 141.61 325.52 C 136.93 339.07 135.37 353.91 138.99 367.92 C 142.10 381.42 150.34 393.24 160.82 402.13 C 151.45 395.56 144.50 385.66 140.54 374.97 C 135.14 360.58 134.99 344.37 139.76 329.78 Z" />
<path fill="#f64818" opacity="1.00" d=" M 450.10 328.79 C 451.45 336.04 455.63 342.25 461.10 347.06 C 455.13 342.98 450.31 336.21 450.10 328.79 Z" />
<path fill="#f64818" opacity="1.00" d=" M 1144.82 361.12 C 1143.72 350.67 1143.84 339.53 1148.06 329.77 C 1146.29 337.08 1144.62 344.50 1144.91 352.08 C 1144.77 364.06 1148.57 375.70 1154.16 386.18 C 1148.94 378.89 1146.35 369.89 1144.82 361.12 Z" />
<path fill="#f64818" opacity="1.00" d=" M 1241.90 348.81 C 1247.90 348.84 1253.90 348.80 1259.91 348.84 L 1259.62 348.87 C 1253.92 349.34 1248.20 349.05 1242.49 349.07 C 1242.60 363.01 1242.86 376.99 1242.39 390.91 C 1240.59 393.63 1236.96 394.71 1234.03 395.91 C 1236.67 394.34 1239.84 393.32 1241.80 390.84 C 1242.05 376.84 1241.82 362.82 1241.90 348.81 Z" />
<path fill="#f64818" opacity="1.00" d=" M 2.80 349.60 C 3.28 354.39 3.22 359.23 4.19 363.96 C 7.12 379.31 15.40 393.87 28.05 403.23 C 32.05 406.32 36.69 408.40 41.08 410.85 C 16.70 401.76 1.03 375.21 2.80 349.60 Z" />
<path fill="#f64818" opacity="1.00" d=" M 657.75 385.78 C 662.20 378.52 662.99 369.88 663.80 361.62 C 664.47 369.13 662.88 376.74 659.63 383.51 C 656.61 389.47 651.54 394.84 645.02 396.84 C 650.16 394.40 654.75 390.65 657.75 385.78 Z" />
<path fill="#f64818" opacity="1.00" d=" M 1059.94 370.00 C 1060.27 370.40 1060.95 371.22 1061.29 371.62 L 1060.38 371.70 L 1059.68 370.87 L 1059.94 370.00 Z" />
<path fill="#f64818" opacity="1.00" d=" M 368.86 377.77 C 370.92 379.84 372.75 382.11 374.50 384.44 C 382.46 394.81 390.97 404.77 398.66 415.33 L 398.98 415.84 C 391.37 407.21 384.58 397.85 377.32 388.91 C 374.51 385.19 371.23 381.80 368.86 377.77 Z" />
<path fill="#f64818" opacity="1.00" d=" M 1290.16 390.20 C 1295.10 388.76 1301.36 388.82 1305.15 392.82 C 1311.52 398.08 1311.35 408.95 1305.29 414.38 C 1299.50 419.70 1289.08 419.14 1284.54 412.46 C 1279.11 405.39 1281.78 393.64 1290.16 390.20 Z" />
<path fill="#f64818" opacity="1.00" d=" M 1077.88 392.78 C 1083.30 398.94 1088.43 405.42 1093.19 412.11 C 1090.37 409.67 1088.50 406.39 1086.08 403.59 C 1083.37 399.97 1080.13 396.72 1077.88 392.78 Z" />
<path fill="#f64818" opacity="1.00" d=" M 1168.44 402.28 C 1168.50 402.33 1168.62 402.42 1168.67 402.46 C 1168.62 402.42 1168.50 402.33 1168.44 402.28 Z" />
</g>
</svg>
